<svg width="261" height="65" viewBox="0 0 261 65" fill="none" xmlns="http://www.w3.org/2000/svg">
<path d="M13.1999 23.787C23.186 23.787 33.177 23.8607 43.1632 23.787C44.9309 23.787 45.5462 24.1605 45.4973 26.0626C45.3557 31.1249 45.4973 36.1921 45.4387 41.2594C45.4046 45.5205 43.2022 47.7617 38.988 47.8551C36.7106 47.9788 34.4279 47.9689 32.1516 47.8256C27.6946 47.3161 23.2074 48.478 19.5481 51.0891C17.7804 52.3227 15.7636 53.1877 13.3464 54.5C13.8933 52.48 14.2449 50.9957 14.704 49.5507C15.0458 48.4596 14.7967 48.0763 13.6345 47.7077C9.8696 46.5625 8.65368 44.8472 8.59997 40.9104C8.55114 37.4012 8.5609 33.8821 8.59997 30.3729C8.59997 29.0164 8.59997 27.8565 7.13501 27.1144C6.62126 26.8499 6.2011 26.4324 5.93192 25.9187C5.66274 25.405 5.55765 24.8202 5.63098 24.2441H7.26684C8.33137 26.7015 10.773 25.7186 12.2965 23.7919L13.1999 23.787ZM27.117 32.0391C22.3998 32.0391 17.6876 32.0686 12.9558 32.0391C11.6617 32.0391 11.0025 32.3438 11.0611 33.8084C11.149 36.4231 11.0269 39.0427 11.1197 41.6722C11.2125 44.3016 12.3747 45.4321 14.9334 45.4517C23.0721 45.5074 31.2026 45.5074 39.325 45.4517C41.7666 45.4271 42.875 44.2083 42.9581 41.7607C43.0411 39.3131 42.8751 36.8458 43.0215 34.3884C43.129 32.6043 42.6504 31.9604 40.7557 32.0243C36.229 32.1324 31.673 32.0342 27.1219 32.0391H27.117ZM31.3458 29.9208C33.6067 29.8274 33.68 27.5862 34.725 26.3083C35.5893 25.2516 35.145 24.8044 33.846 24.8044C31.4533 24.8044 31.4533 27.1144 30.3643 28.3529C29.2754 29.5915 30.0225 29.9896 31.3507 29.9208H31.3458ZM23.5669 29.9208C25.7888 29.8028 25.9206 27.596 26.9851 26.3231C27.8837 25.2418 27.4198 24.8486 26.1355 24.7995C23.6939 24.7258 23.7427 27.0849 22.6587 28.3234C21.6771 29.444 22.0629 30.0338 23.5718 29.9208H23.5669ZM42.9874 25.1288C39.911 23.964 39.2761 26.1806 38.3581 27.8123C38.0456 28.3628 36.8248 29.0902 37.9674 29.7438C38.1744 29.8792 38.4059 29.9721 38.6487 30.0172C38.8914 30.0623 39.1406 30.0587 39.382 30.0067C39.6233 29.9546 39.8521 29.8551 40.0552 29.7138C40.2583 29.5726 40.4316 29.3924 40.5653 29.1835C41.3759 27.8909 42.1328 26.5639 42.9874 25.1288ZM19.5774 25.1632C16.5742 23.9296 15.8808 26.097 14.9725 27.7386C14.6551 28.3185 13.405 29.041 14.4842 29.7045C14.7042 29.857 14.9534 29.9616 15.2159 30.0116C15.4784 30.0616 15.7484 30.0559 16.0086 29.9948C16.2687 29.9337 16.5134 29.8187 16.7268 29.657C16.9403 29.4953 17.1178 29.2905 17.2481 29.0557C17.9708 27.8123 18.7277 26.5737 19.5774 25.1632ZM7.2522 24.2343H5.61632C5.39471 23.2842 5.49152 22.287 5.89162 21.3981C6.29172 20.5091 6.97267 19.7783 7.82842 19.3194C8.33757 19.053 8.74837 18.6292 9.00039 18.1104C10.0942 16.0854 11.9303 15.1319 14.1033 14.7486C22.0092 13.3479 29.9102 11.9176 37.8258 10.571C41.0439 10.0254 44.3791 12.704 44.8576 15.9183C45.0578 17.265 44.174 17.1765 43.422 17.3141C41.0292 17.7516 16.6914 21.939 13.2976 22.5042C12.6579 22.5436 12.3747 22.7205 11.735 22.7598C11.3883 21.5114 10.7583 20.7939 8.98084 21.192C7.82841 21.7768 7.2522 21.7768 7.2522 24.2343ZM34.598 17.555C33.4847 16.3066 32.4495 15.073 31.341 13.9229C30.5987 13.1512 29.6904 13.5444 28.8456 13.7902C28.4794 13.8934 28.4062 14.1539 28.4892 14.5323C28.9482 16.5966 32.3616 18.3856 34.6078 17.5648L34.598 17.555ZM26.8973 19.0687C25.6765 17.6729 24.6901 16.5032 23.6646 15.3777C22.8491 14.4832 21.8529 14.9943 20.9349 15.1614C20.5491 15.2302 20.6028 15.6038 20.7103 15.9478C21.2962 17.845 24.3922 19.6192 26.907 19.0786L26.8973 19.0687ZM17.1309 20.8922C17.6192 20.7644 18.0685 20.784 18.547 20.3122C18.4054 19.8804 18.1996 19.4728 17.9366 19.1031C17.2041 18.248 16.4717 17.3682 15.6806 16.5917C14.8895 15.8151 14.0056 16.4098 13.1657 16.5327C13.029 16.5327 12.8435 16.8571 12.8386 17.0242C12.819 17.8941 16.1933 20.9217 17.1455 20.902L17.1309 20.8922ZM35.5258 12.8809C36.7222 14.2473 37.6891 15.4268 38.7341 16.5376C39.4763 17.324 40.3797 16.9455 41.2148 16.6703C41.664 16.5228 41.7519 16.223 41.5712 15.7316C40.8632 13.746 38.0114 12.242 35.5405 12.8908L35.5258 12.8809Z" fill="url(#paint0_linear_2816_5045)"/>
<path d="M74.248 16.544H87.074V18.546H74.248V16.544ZM79.44 15.246H81.838V17.666H79.44V15.246ZM78.076 21.142V22.484H83.224V21.142H78.076ZM75.81 19.448H85.622V24.178H75.81V19.448ZM78.032 13.266V14.146H83.356V13.266H78.032ZM78.032 11.022V11.88H83.356V11.022H78.032ZM75.678 9.548H85.798V15.598H75.678V9.548ZM79.44 23.056H81.838V27.236C81.838 28.248 81.64 28.776 80.914 29.106C80.166 29.436 79.286 29.458 78.076 29.458C77.922 28.842 77.46 27.984 77.13 27.434C77.944 27.478 78.824 27.478 79.11 27.456C79.374 27.456 79.44 27.412 79.44 27.17V23.056ZM76.272 24.508L78.472 25.08C77.856 26.51 76.822 27.984 75.876 28.93C75.436 28.556 74.512 27.962 73.984 27.654C74.93 26.862 75.788 25.652 76.272 24.508ZM82.52 25.476L84.478 24.508C85.292 25.432 86.304 26.73 86.788 27.566L84.742 28.644C84.302 27.786 83.334 26.444 82.52 25.476ZM91.562 9.174L94.07 10.186C92.552 12.254 90.308 14.146 88.196 15.4C87.756 14.828 86.986 14.014 86.326 13.53C88.196 12.562 90.418 10.846 91.562 9.174ZM91.958 15.312L94.422 16.346C92.816 18.458 90.462 20.372 88.306 21.67C87.866 21.098 87.096 20.306 86.414 19.8C88.372 18.788 90.726 17.028 91.958 15.312ZM92.42 21.296L95.038 22.198C93.322 25.432 90.638 27.852 87.47 29.48C87.074 28.798 86.282 27.874 85.622 27.28C88.416 26.07 91.078 23.936 92.42 21.296ZM113.804 13.09L116.312 13.596C115.762 15.444 115.168 17.512 114.618 18.832L112.594 18.326C113.078 16.918 113.584 14.696 113.804 13.09ZM105.422 13.728L107.534 13.266C108.018 14.894 108.436 16.984 108.546 18.37L106.302 18.876C106.258 17.49 105.862 15.356 105.422 13.728ZM105.202 9.922H116.422V12.364H105.202V9.922ZM104.454 19.448H116.818V21.956H104.454V19.448ZM109.316 10.78H111.912V29.458H109.316V10.78ZM97.216 15.576H104.014V17.556H97.216V15.576ZM97.282 9.504H103.97V11.506H97.282V9.504ZM97.216 18.568H104.014V20.57H97.216V18.568ZM96.138 12.474H104.806V14.564H96.138V12.474ZM98.426 21.626H103.992V28.314H98.426V26.224H101.726V23.716H98.426V21.626ZM97.15 21.626H99.372V29.194H97.15V21.626ZM121.504 23.1H135.848V25.146H121.504V23.1ZM122.076 19.558H136.838V21.736H122.076V19.558ZM118.798 26.642H138.268V28.908H118.798V26.642ZM127.202 18.216H129.952V28.226H127.202V18.216ZM123.506 14.63V15.796H133.274V14.63H123.506ZM123.506 11.594V12.76H133.274V11.594H123.506ZM120.932 9.592H136.024V17.82H120.932V9.592ZM122.054 17.6L124.65 18.348C123.66 20.482 122.01 22.616 120.492 23.958C119.986 23.474 118.908 22.682 118.292 22.308C119.81 21.164 121.262 19.382 122.054 17.6ZM144.978 24.156H159.036V25.96H144.978V24.156ZM143.438 27.082H160.554V29.04H143.438V27.082ZM150.412 22.924H152.964V28.072H150.412V22.924ZM146.87 12.188H149.268V17.072H146.87V12.188ZM151.952 12.188H154.416V17.072H151.952V12.188ZM146.87 18.964H151.93V20.438H146.87V18.964ZM145.814 17.886H148.19V22.22H145.814V17.886ZM144.34 21.582C146.32 21.516 149.202 21.34 152.04 21.164V22.836C149.356 23.078 146.584 23.254 144.494 23.408L144.34 21.582ZM158.244 18.436L159.718 19.8C158.134 20.35 155.978 20.724 154.174 20.9C154.108 20.504 153.866 19.866 153.646 19.47C155.274 19.228 157.166 18.876 158.244 18.436ZM152.7 17.886H155.076V20.988C155.076 21.538 155.208 21.582 155.89 21.582C156.198 21.582 157.628 21.582 158.024 21.582C158.53 21.582 158.662 21.45 158.728 20.68C159.19 20.944 160.092 21.252 160.708 21.34C160.488 22.924 159.85 23.364 158.31 23.364C157.804 23.364 156.022 23.364 155.538 23.364C153.25 23.364 152.7 22.814 152.7 20.988V17.886ZM143.218 13.574H159.586V18.172H143.218V16.456H157.144V15.29H143.218V13.574ZM149.818 8.822H152.568V11.638H149.818V8.822ZM143.152 10.362H160.532V12.518H143.152V10.362ZM141.876 10.362H144.296V16.852C144.296 20.482 143.966 26.004 141.986 29.502C141.546 29.04 140.49 28.27 139.94 27.984C141.722 24.816 141.876 20.152 141.876 16.852V10.362ZM178.626 17.952L181.002 18.7C179.55 21.318 177.13 23.65 174.71 25.102C174.358 24.596 173.522 23.584 172.994 23.122C175.282 21.978 177.46 20.086 178.626 17.952ZM178.912 8.734L181.2 9.922C180.034 11.308 178.692 12.782 177.636 13.75L175.832 12.716C176.866 11.66 178.186 9.988 178.912 8.734ZM183.026 10.362L185.38 11.66C183.026 14.146 179.924 16.962 177.46 18.744L175.722 17.6C178.164 15.73 181.2 12.738 183.026 10.362ZM173.742 12.848L175.326 11.132C176.932 12.144 179 13.64 179.946 14.784L178.274 16.676C177.372 15.554 175.392 13.926 173.742 12.848ZM182.784 15.29L184.83 14.19C186.128 15.62 187.602 17.622 188.196 19.008L185.974 20.262C185.446 18.92 184.082 16.808 182.784 15.29ZM173.302 16.852C176.492 16.83 181.442 16.764 186.084 16.676L185.996 18.788C181.53 18.942 176.8 19.096 173.5 19.184L173.302 16.852ZM177.878 21.582C179.66 24.552 183.378 26.554 188.196 27.302C187.646 27.852 186.964 28.864 186.634 29.546C181.574 28.534 177.944 26.114 175.744 22.264L177.878 21.582ZM178.428 20.262H184.346V22.242H176.668L178.428 20.262ZM183.488 20.262H183.994L184.412 20.174L186.062 20.9C184.104 25.85 179.594 28.38 174.248 29.59C174.028 28.93 173.456 27.896 172.994 27.368C177.834 26.532 182.036 24.288 183.488 20.636V20.262ZM171.85 13.552L174.182 14.41C172.752 17.094 170.464 19.91 168.308 21.692C168.066 21.12 167.362 19.8 166.922 19.228C168.792 17.864 170.706 15.73 171.85 13.552ZM171.454 8.822L173.786 9.746C172.422 11.66 170.354 13.794 168.506 15.158C168.176 14.63 167.538 13.706 167.12 13.222C168.704 12.122 170.552 10.274 171.454 8.822ZM170.046 18.304L172.29 16.06L172.51 16.17V29.524H170.046V18.304ZM193.41 26.026H205.554V28.578H193.41V26.026ZM192.222 19.712H206.94V29.458H204.102V22.242H194.928V29.458H192.222V19.712ZM196.534 8.646L199.548 9.636C198.118 12.364 196.248 15.312 194.752 17.226L192.376 16.28C193.85 14.278 195.588 11.11 196.534 8.646ZM201.814 12.584L203.904 11.044C206.082 12.804 208.722 15.356 209.866 17.248L207.556 19.008C206.522 17.16 204.014 14.476 201.814 12.584ZM189.89 15.048C194.334 14.938 201.154 14.674 207.204 14.41L207.072 16.962C200.978 17.292 194.378 17.556 190.044 17.732L189.89 15.048ZM217.082 26.972H227.818V28.908H217.082V26.972ZM220.228 13.442H222.78V16.082H220.228V13.442ZM212.11 14.96H231.25V19.338H228.676V16.94H214.596V19.338H212.11V14.96ZM216.994 17.864H227.774V22.792H216.994V20.9H225.134V19.756H216.994V17.864ZM217.104 23.782H229.446V29.502H226.806V25.718H217.104V23.782ZM215.542 17.864H218.05V29.524H215.542V17.864ZM214.332 10.362H221.262V12.43H214.332V10.362ZM223.242 10.362H231.778V12.43H223.242V10.362ZM214.42 8.646L216.884 9.306C216.026 11.286 214.618 13.288 213.32 14.542C212.814 14.146 211.758 13.442 211.164 13.134C212.484 12.034 213.738 10.318 214.42 8.646ZM223.374 8.646L225.882 9.262C225.09 11.154 223.726 12.98 222.406 14.124C221.878 13.728 220.756 13.156 220.096 12.87C221.504 11.858 222.736 10.252 223.374 8.646ZM215.146 11.968L217.39 11.374C217.94 12.122 218.556 13.178 218.82 13.882L216.444 14.564C216.246 13.882 215.674 12.76 215.146 11.968ZM224.98 12.034L227.29 11.418C227.928 12.144 228.698 13.2 229.05 13.904L226.608 14.586C226.322 13.926 225.596 12.804 224.98 12.034ZM243.878 15.906V17.798H250.544V15.906H243.878ZM243.878 11.99V13.838H250.544V11.99H243.878ZM241.502 9.746H253.052V20.02H241.502V9.746ZM241.348 21.912H253.294V24.288H241.348V21.912ZM239.808 26.4H254.02V28.776H239.808V26.4ZM233.362 10.076H240.666V12.54H233.362V10.076ZM233.582 16.412H240.292V18.854H233.582V16.412ZM233.12 24.772C235.012 24.288 237.828 23.408 240.468 22.55L240.93 25.08C238.466 25.916 235.826 26.774 233.714 27.456L233.12 24.772ZM235.804 11.044H238.312V24.574L235.804 24.97V11.044ZM246.144 10.692H248.366V18.986H248.608V27.522H245.902V18.986H246.144V10.692Z" fill="white"/>
<path d="M74.9382 42.4091H77.3352L81.5028 52.5852H81.6562L85.8239 42.4091H88.2209V55.5H86.3416V46.027H86.2202L82.3594 55.4808H80.7997L76.9389 46.0206H76.8175V55.5H74.9382V42.4091ZM95.0748 55.6982C94.1543 55.6982 93.351 55.4872 92.665 55.0653C91.9789 54.6435 91.4462 54.0533 91.0669 53.2947C90.6877 52.5362 90.498 51.6499 90.498 50.6357C90.498 49.6172 90.6877 48.7266 91.0669 47.9638C91.4462 47.201 91.9789 46.6087 92.665 46.1868C93.351 45.7649 94.1543 45.554 95.0748 45.554C95.9952 45.554 96.7985 45.7649 97.4846 46.1868C98.1706 46.6087 98.7033 47.201 99.0826 47.9638C99.4618 48.7266 99.6515 49.6172 99.6515 50.6357C99.6515 51.6499 99.4618 52.5362 99.0826 53.2947C98.7033 54.0533 98.1706 54.6435 97.4846 55.0653C96.7985 55.4872 95.9952 55.6982 95.0748 55.6982ZM95.0811 54.0938C95.6777 54.0938 96.1721 53.9361 96.5641 53.6207C96.9561 53.3054 97.2459 52.8857 97.4334 52.3615C97.6252 51.8374 97.7211 51.2599 97.7211 50.6293C97.7211 50.0028 97.6252 49.4276 97.4334 48.9034C97.2459 48.375 96.9561 47.951 96.5641 47.6314C96.1721 47.3118 95.6777 47.152 95.0811 47.152C94.4803 47.152 93.9817 47.3118 93.5854 47.6314C93.1934 47.951 92.9015 48.375 92.7097 48.9034C92.5222 49.4276 92.4284 50.0028 92.4284 50.6293C92.4284 51.2599 92.5222 51.8374 92.7097 52.3615C92.9015 52.8857 93.1934 53.3054 93.5854 53.6207C93.9817 53.9361 94.4803 54.0938 95.0811 54.0938ZM109.85 45.6818L106.29 55.5H104.244L100.677 45.6818H102.729L105.216 53.2372H105.318L107.798 45.6818H109.85ZM111.646 55.5V45.6818H113.557V55.5H111.646ZM112.611 44.1669C112.279 44.1669 111.993 44.0561 111.755 43.8345C111.52 43.6087 111.403 43.3402 111.403 43.0291C111.403 42.7138 111.52 42.4453 111.755 42.2237C111.993 41.9979 112.279 41.8849 112.611 41.8849C112.944 41.8849 113.227 41.9979 113.461 42.2237C113.7 42.4453 113.819 42.7138 113.819 43.0291C113.819 43.3402 113.7 43.6087 113.461 43.8345C113.227 44.0561 112.944 44.1669 112.611 44.1669ZM120.36 55.6982C119.393 55.6982 118.56 55.4915 117.861 55.0781C117.166 54.6605 116.629 54.0746 116.25 53.3203C115.875 52.5618 115.688 51.6733 115.688 50.6548C115.688 49.6491 115.875 48.7628 116.25 47.9957C116.629 47.2287 117.158 46.63 117.835 46.1996C118.517 45.7692 119.314 45.554 120.226 45.554C120.78 45.554 121.317 45.6456 121.837 45.8288C122.357 46.0121 122.823 46.2997 123.237 46.6918C123.65 47.0838 123.976 47.593 124.214 48.2195C124.453 48.8416 124.572 49.598 124.572 50.4886V51.1662H116.768V49.7344H122.7C122.7 49.2315 122.597 48.7862 122.393 48.3984C122.188 48.0064 121.901 47.6974 121.53 47.4716C121.163 47.2457 120.733 47.1328 120.239 47.1328C119.702 47.1328 119.233 47.2649 118.832 47.5291C118.436 47.7891 118.129 48.13 117.912 48.5518C117.699 48.9695 117.592 49.4233 117.592 49.9134V51.032C117.592 51.6882 117.707 52.2464 117.938 52.7067C118.172 53.1669 118.498 53.5185 118.915 53.7614C119.333 54 119.821 54.1193 120.379 54.1193C120.741 54.1193 121.072 54.0682 121.37 53.9659C121.668 53.8594 121.926 53.7017 122.143 53.4929C122.361 53.2841 122.527 53.0263 122.642 52.7195L124.451 53.0455C124.306 53.5781 124.046 54.0447 123.671 54.4453C123.3 54.8416 122.834 55.1506 122.271 55.3722C121.713 55.5895 121.076 55.6982 120.36 55.6982ZM140.469 46.5447C140.346 46.157 140.18 45.8097 139.971 45.5028C139.766 45.1918 139.521 44.9276 139.236 44.7102C138.95 44.4886 138.624 44.3203 138.258 44.2053C137.896 44.0902 137.497 44.0327 137.062 44.0327C136.325 44.0327 135.661 44.2223 135.068 44.6016C134.476 44.9808 134.007 45.5369 133.662 46.2699C133.321 46.9986 133.151 47.8913 133.151 48.9482C133.151 50.0092 133.323 50.9062 133.668 51.6392C134.013 52.3722 134.487 52.9283 135.087 53.3075C135.688 53.6868 136.372 53.8764 137.139 53.8764C137.851 53.8764 138.471 53.7315 138.999 53.4418C139.532 53.152 139.943 52.7429 140.233 52.2145C140.527 51.6818 140.674 51.0554 140.674 50.3352L141.185 50.4311H137.44V48.8011H142.585V50.2905C142.585 51.3899 142.351 52.3445 141.882 53.1541C141.418 53.9595 140.774 54.5817 139.952 55.0206C139.134 55.4595 138.196 55.679 137.139 55.679C135.955 55.679 134.915 55.4062 134.02 54.8608C133.129 54.3153 132.435 53.5419 131.936 52.5405C131.438 51.5348 131.188 50.3416 131.188 48.9609C131.188 47.9169 131.333 46.9794 131.623 46.1484C131.913 45.3175 132.32 44.6122 132.844 44.0327C133.372 43.4489 133.992 43.0036 134.704 42.6967C135.42 42.3857 136.202 42.2301 137.05 42.2301C137.757 42.2301 138.415 42.3345 139.025 42.5433C139.638 42.7521 140.184 43.0483 140.661 43.4318C141.143 43.8153 141.541 44.2713 141.857 44.7997C142.172 45.3239 142.385 45.9055 142.496 46.5447H140.469ZM147.796 55.7173C147.174 55.7173 146.612 55.6023 146.109 55.3722C145.606 55.1378 145.208 54.799 144.914 54.3558C144.624 53.9126 144.479 53.3693 144.479 52.7259C144.479 52.1719 144.585 51.7159 144.798 51.358C145.012 51 145.299 50.7166 145.661 50.5078C146.024 50.299 146.428 50.1413 146.876 50.0348C147.323 49.9283 147.779 49.8473 148.244 49.7919C148.832 49.7237 149.309 49.6683 149.676 49.6257C150.042 49.5788 150.308 49.5043 150.475 49.402C150.641 49.2997 150.724 49.1335 150.724 48.9034V48.8587C150.724 48.3004 150.566 47.8679 150.251 47.5611C149.94 47.2543 149.475 47.1009 148.857 47.1009C148.214 47.1009 147.707 47.2436 147.336 47.5291C146.97 47.8104 146.716 48.1236 146.575 48.4688L144.779 48.0597C144.992 47.4631 145.303 46.9815 145.713 46.6151C146.126 46.2443 146.601 45.9759 147.138 45.8097C147.675 45.6392 148.24 45.554 148.832 45.554C149.224 45.554 149.639 45.6009 150.078 45.6946C150.521 45.7841 150.935 45.9503 151.318 46.1932C151.706 46.4361 152.024 46.7834 152.271 47.2351C152.518 47.6825 152.642 48.2642 152.642 48.9801V55.5H150.775V54.1577H150.698C150.575 54.4048 150.389 54.6477 150.142 54.8864C149.895 55.125 149.578 55.3232 149.19 55.4808C148.802 55.6385 148.338 55.7173 147.796 55.7173ZM148.212 54.1832C148.74 54.1832 149.192 54.0788 149.567 53.87C149.946 53.6612 150.234 53.3885 150.43 53.0518C150.63 52.7109 150.73 52.3466 150.73 51.9588V50.6932C150.662 50.7614 150.53 50.8253 150.334 50.8849C150.142 50.9403 149.923 50.9893 149.676 51.032C149.428 51.0703 149.188 51.1065 148.953 51.1406C148.719 51.1705 148.523 51.196 148.365 51.2173C147.994 51.2642 147.656 51.343 147.349 51.4538C147.046 51.5646 146.803 51.7244 146.62 51.9332C146.441 52.1378 146.352 52.4105 146.352 52.7514C146.352 53.2244 146.526 53.5824 146.876 53.8253C147.225 54.0639 147.671 54.1832 148.212 54.1832ZM157.098 42.4091V55.5H155.187V42.4091H157.098ZM162.527 55.7173C161.905 55.7173 161.342 55.6023 160.839 55.3722C160.336 55.1378 159.938 54.799 159.644 54.3558C159.354 53.9126 159.209 53.3693 159.209 52.7259C159.209 52.1719 159.316 51.7159 159.529 51.358C159.742 51 160.03 50.7166 160.392 50.5078C160.754 50.299 161.159 50.1413 161.606 50.0348C162.054 49.9283 162.51 49.8473 162.974 49.7919C163.562 49.7237 164.04 49.6683 164.406 49.6257C164.773 49.5788 165.039 49.5043 165.205 49.402C165.371 49.2997 165.454 49.1335 165.454 48.9034V48.8587C165.454 48.3004 165.297 47.8679 164.981 47.5611C164.67 47.2543 164.206 47.1009 163.588 47.1009C162.944 47.1009 162.437 47.2436 162.067 47.5291C161.7 47.8104 161.447 48.1236 161.306 48.4688L159.51 48.0597C159.723 47.4631 160.034 46.9815 160.443 46.6151C160.856 46.2443 161.331 45.9759 161.868 45.8097C162.405 45.6392 162.97 45.554 163.562 45.554C163.954 45.554 164.37 45.6009 164.809 45.6946C165.252 45.7841 165.665 45.9503 166.049 46.1932C166.437 46.4361 166.754 46.7834 167.001 47.2351C167.248 47.6825 167.372 48.2642 167.372 48.9801V55.5H165.506V54.1577H165.429C165.305 54.4048 165.12 54.6477 164.873 54.8864C164.626 55.125 164.308 55.3232 163.92 55.4808C163.532 55.6385 163.068 55.7173 162.527 55.7173ZM162.942 54.1832C163.471 54.1832 163.922 54.0788 164.297 53.87C164.677 53.6612 164.964 53.3885 165.16 53.0518C165.361 52.7109 165.461 52.3466 165.461 51.9588V50.6932C165.393 50.7614 165.26 50.8253 165.064 50.8849C164.873 50.9403 164.653 50.9893 164.406 51.032C164.159 51.0703 163.918 51.1065 163.684 51.1406C163.449 51.1705 163.253 51.196 163.096 51.2173C162.725 51.2642 162.386 51.343 162.079 51.4538C161.777 51.5646 161.534 51.7244 161.351 51.9332C161.172 52.1378 161.082 52.4105 161.082 52.7514C161.082 53.2244 161.257 53.5824 161.606 53.8253C161.956 54.0639 162.401 54.1832 162.942 54.1832ZM171.426 45.6818L173.593 49.5043L175.779 45.6818H177.869L174.808 50.5909L177.895 55.5H175.805L173.593 51.831L171.388 55.5H169.291L172.347 50.5909L169.33 45.6818H171.426ZM181.04 59.1818C180.754 59.1818 180.494 59.1584 180.26 59.1115C180.026 59.0689 179.851 59.022 179.736 58.9709L180.196 57.4048C180.545 57.4986 180.857 57.5391 181.129 57.5263C181.402 57.5135 181.643 57.4112 181.852 57.2195C182.065 57.0277 182.252 56.7145 182.414 56.2798L182.651 55.6278L179.058 45.6818H181.104L183.59 53.3011H183.692L186.179 45.6818H188.231L184.185 56.8104C183.997 57.3217 183.759 57.7543 183.469 58.108C183.179 58.4659 182.834 58.7344 182.433 58.9134C182.033 59.0923 181.568 59.1818 181.04 59.1818Z" fill="white"/>
<defs>
<linearGradient id="paint0_linear_2816_5045" x1="10.1154" y1="18.2193" x2="40.1574" y2="48.2825" gradientUnits="userSpaceOnUse">
<stop stop-color="white"/>
<stop offset="1" stop-color="white"/>
</linearGradient>
</defs>
</svg>
