<svg width="478" height="163" viewBox="0 0 478 163" fill="none" xmlns="http://www.w3.org/2000/svg">
<path d="M28.6822 49.2223C65.8805 49.2223 103.097 49.4955 140.295 49.2223C146.88 49.2223 149.172 50.6061 148.99 57.6524C148.463 76.4059 148.99 95.1777 148.772 113.949C148.644 129.735 140.441 138.038 124.743 138.384C116.259 138.842 107.756 138.805 99.2771 138.274C82.6748 136.387 65.96 140.691 52.329 150.364C45.7443 154.934 38.2319 158.139 29.2279 163C31.2652 155.517 32.5749 150.018 34.2847 144.665C35.558 140.623 34.6303 139.203 30.3011 137.837C16.2767 133.595 11.7475 127.241 11.5474 112.657C11.3655 99.6567 11.4019 86.6202 11.5474 73.6202C11.5474 68.5949 11.5474 64.298 6.09042 61.5487C4.17671 60.5691 2.6116 59.0222 1.6089 57.1192C0.6062 55.2161 0.214745 53.0497 0.487909 50.9156H6.58147C10.5469 60.0193 19.6419 56.3778 25.3171 49.2406L28.6822 49.2223ZM80.5233 79.7925C62.9519 79.7925 45.3987 79.9017 27.7727 79.7925C22.9524 79.7925 20.4968 80.9213 20.715 86.3471C21.0425 96.0334 20.5877 105.738 20.9333 115.479C21.2789 125.22 25.6081 129.407 35.1396 129.48C65.456 129.687 95.7422 129.687 125.998 129.48C135.093 129.389 139.222 124.874 139.531 115.807C139.841 106.739 139.222 97.5992 139.768 88.4955C140.168 81.8863 138.385 79.5011 131.328 79.7378C114.466 80.1384 97.4945 79.7743 80.5415 79.7925H80.5233ZM96.2757 71.9451C104.698 71.5992 104.971 63.2966 108.863 58.5627C112.083 54.6481 110.428 52.9913 105.589 52.9913C96.676 52.9913 96.676 61.5487 92.6197 66.137C88.5633 70.7252 91.3463 72.2 96.2939 71.9451H96.2757ZM67.2993 71.9451C75.5757 71.5081 76.0668 63.333 80.0322 58.6173C83.3791 54.6117 81.6511 53.1551 76.8672 52.9731C67.7722 52.6999 67.9541 61.4395 63.916 66.0277C60.2598 70.179 61.6968 72.3639 67.3175 71.9451H67.2993ZM139.64 54.193C128.181 49.8778 125.816 58.0894 122.396 64.1342C121.232 66.1734 116.685 68.8681 120.941 71.2897C121.712 71.7911 122.575 72.1352 123.479 72.3023C124.383 72.4694 125.311 72.4561 126.21 72.2633C127.109 72.0704 127.962 71.7018 128.718 71.1786C129.474 70.6553 130.12 69.9877 130.618 69.214C133.638 64.4255 136.457 59.5095 139.64 54.193ZM52.4382 54.3204C41.2514 49.7504 38.6685 57.7798 35.2851 63.8611C34.1028 66.0095 29.4462 68.686 33.4662 71.144C34.2857 71.709 35.2141 72.0964 36.1919 72.2816C37.1696 72.4668 38.1753 72.4456 39.1444 72.2194C40.1135 71.9931 41.0248 71.5669 41.8199 70.9678C42.615 70.3688 43.2762 69.6102 43.7616 68.7406C46.4537 64.1342 49.2731 59.5459 52.4382 54.3204ZM6.52696 50.8792H0.433286C-0.392203 47.3596 -0.0315783 43.6655 1.4588 40.3723C2.94917 37.0792 5.48568 34.3718 8.67335 32.6719C10.5699 31.685 12.1002 30.1151 13.039 28.1929C17.1135 20.6915 23.9528 17.1593 32.0473 15.7391C61.4967 10.55 90.9279 5.25166 120.414 0.262854C132.401 -1.75816 144.825 8.16479 146.607 20.0724C147.353 25.0612 144.061 24.7335 141.259 25.2433C132.346 26.8638 41.688 42.3764 29.046 44.4703C26.6632 44.6159 25.6081 45.2714 23.2253 45.417C21.9338 40.7924 19.5872 38.1341 12.9661 39.6089C8.67332 41.7756 6.52696 41.7756 6.52696 50.8792ZM108.39 26.1355C104.243 21.5108 100.387 16.9407 96.2576 12.6802C93.4928 9.82166 90.1094 11.2783 86.9625 12.1886C85.5983 12.571 85.3255 13.536 85.6347 14.938C87.3445 22.585 100.059 29.2125 108.427 26.1719L108.39 26.1355ZM79.7048 31.7433C75.1573 26.5724 71.483 22.2391 67.6631 18.0696C64.6254 14.7559 60.9147 16.6495 57.495 17.2685C56.058 17.5234 56.2581 18.9072 56.6582 20.1817C58.841 27.2097 70.3734 33.7826 79.7412 31.7797L79.7048 31.7433ZM43.325 38.4983C45.144 38.0249 46.8175 38.0977 48.6001 36.3498C48.0728 34.7503 47.3062 33.2401 46.3264 31.8708C43.5979 28.7027 40.8695 25.4436 37.9227 22.5668C34.9759 19.6901 31.6835 21.8931 28.5549 22.3483C28.0456 22.3483 27.3544 23.55 27.3362 24.169C27.2634 27.3917 39.8326 38.6075 43.3797 38.5346L43.325 38.4983ZM111.846 8.82027C116.303 13.8819 119.904 18.2517 123.797 22.3665C126.562 25.2797 129.927 23.8777 133.038 22.8581C134.711 22.3119 135.038 21.2013 134.365 19.3806C131.728 12.0248 121.105 6.45335 111.901 8.85672L111.846 8.82027Z" fill="url(#paint0_linear_157_9898)"/>
<path d="M179.176 40.128H216.488V45.952H179.176V40.128ZM194.28 36.352H201.256V43.392H194.28V36.352ZM190.312 53.504V57.408H205.288V53.504H190.312ZM183.72 48.576H212.264V62.336H183.72V48.576ZM190.184 30.592V33.152H205.672V30.592H190.184ZM190.184 24.064V26.56H205.672V24.064H190.184ZM183.336 19.776H212.776V37.376H183.336V19.776ZM194.28 59.072H201.256V71.232C201.256 74.176 200.68 75.712 198.568 76.672C196.392 77.632 193.832 77.696 190.312 77.696C189.864 75.904 188.52 73.408 187.56 71.808C189.928 71.936 192.488 71.936 193.32 71.872C194.088 71.872 194.28 71.744 194.28 71.04V59.072ZM185.064 63.296L191.464 64.96C189.672 69.12 186.664 73.408 183.912 76.16C182.632 75.072 179.944 73.344 178.408 72.448C181.16 70.144 183.656 66.624 185.064 63.296ZM203.24 66.112L208.936 63.296C211.304 65.984 214.248 69.76 215.656 72.192L209.704 75.328C208.424 72.832 205.608 68.928 203.24 66.112ZM229.544 18.688L236.84 21.632C232.424 27.648 225.896 33.152 219.752 36.8C218.472 35.136 216.232 32.768 214.312 31.36C219.752 28.544 226.216 23.552 229.544 18.688ZM230.696 36.544L237.864 39.552C233.192 45.696 226.344 51.264 220.072 55.04C218.792 53.376 216.552 51.072 214.568 49.6C220.264 46.656 227.112 41.536 230.696 36.544ZM232.04 53.952L239.656 56.576C234.664 65.984 226.856 73.024 217.64 77.76C216.488 75.776 214.184 73.088 212.264 71.36C220.392 67.84 228.136 61.632 232.04 53.952ZM294.248 30.08L301.544 31.552C299.944 36.928 298.216 42.944 296.616 46.784L290.728 45.312C292.136 41.216 293.608 34.752 294.248 30.08ZM269.864 31.936L276.008 30.592C277.416 35.328 278.632 41.408 278.952 45.44L272.424 46.912C272.296 42.88 271.144 36.672 269.864 31.936ZM269.224 20.864H301.864V27.968H269.224V20.864ZM267.048 48.576H303.016V55.872H267.048V48.576ZM281.192 23.36H288.744V77.696H281.192V23.36ZM245.992 37.312H265.768V43.072H245.992V37.312ZM246.184 19.648H265.64V25.472H246.184V19.648ZM245.992 46.016H265.768V51.84H245.992V46.016ZM242.856 28.288H268.072V34.368H242.856V28.288ZM249.512 54.912H265.704V74.368H249.512V68.288H259.112V60.992H249.512V54.912ZM245.8 54.912H252.264V76.928H245.8V54.912ZM316.648 59.2H358.376V65.152H316.648V59.2ZM318.312 48.896H361.256V55.232H318.312V48.896ZM308.776 69.504H365.416V76.096H308.776V69.504ZM333.224 44.992H341.224V74.112H333.224V44.992ZM322.472 34.56V37.952H350.888V34.56H322.472ZM322.472 25.728V29.12H350.888V25.728H322.472ZM314.984 19.904H358.888V43.84H314.984V19.904ZM318.248 43.2L325.8 45.376C322.92 51.584 318.12 57.792 313.704 61.696C312.232 60.288 309.096 57.984 307.304 56.896C311.72 53.568 315.944 48.384 318.248 43.2ZM384.936 62.272H425.832V67.52H384.936V62.272ZM380.456 70.784H430.248V76.48H380.456V70.784ZM400.744 58.688H408.168V73.664H400.744V58.688ZM390.44 27.456H397.416V41.664H390.44V27.456ZM405.224 27.456H412.392V41.664H405.224V27.456ZM390.44 47.168H405.16V51.456H390.44V47.168ZM387.368 44.032H394.28V56.64H387.368V44.032ZM383.08 54.784C388.84 54.592 397.224 54.08 405.48 53.568V58.432C397.672 59.136 389.608 59.648 383.528 60.096L383.08 54.784ZM423.528 45.632L427.816 49.6C423.208 51.2 416.936 52.288 411.688 52.8C411.496 51.648 410.792 49.792 410.152 48.64C414.888 47.936 420.392 46.912 423.528 45.632ZM407.4 44.032H414.312V53.056C414.312 54.656 414.696 54.784 416.68 54.784C417.576 54.784 421.736 54.784 422.888 54.784C424.36 54.784 424.744 54.4 424.936 52.16C426.28 52.928 428.904 53.824 430.696 54.08C430.056 58.688 428.2 59.968 423.72 59.968C422.248 59.968 417.064 59.968 415.656 59.968C409 59.968 407.4 58.368 407.4 53.056V44.032ZM379.816 31.488H427.432V44.864H379.816V39.872H420.328V36.48H379.816V31.488ZM399.016 17.664H407.016V25.856H399.016V17.664ZM379.624 22.144H430.184V28.416H379.624V22.144ZM375.912 22.144H382.952V41.024C382.952 51.584 381.992 67.648 376.232 77.824C374.952 76.48 371.88 74.24 370.28 73.408C375.464 64.192 375.912 50.624 375.912 41.024V22.144Z" fill="white"/>
<path d="M178.96 122.455H184.838L191.047 137.602H191.311L197.52 122.455H203.398V145H198.775V130.326H198.588L192.753 144.89H189.605L183.77 130.271H183.583V145H178.96V122.455ZM214.878 145.33C213.168 145.33 211.689 144.967 210.441 144.24C209.201 143.507 208.243 142.486 207.568 141.18C206.893 139.866 206.555 138.344 206.555 136.612C206.555 134.865 206.893 133.338 207.568 132.032C208.243 130.718 209.201 129.698 210.441 128.972C211.689 128.238 213.168 127.871 214.878 127.871C216.588 127.871 218.063 128.238 219.303 128.972C220.551 129.698 221.512 130.718 222.187 132.032C222.862 133.338 223.2 134.865 223.2 136.612C223.2 138.344 222.862 139.866 222.187 141.18C221.512 142.486 220.551 143.507 219.303 144.24C218.063 144.967 216.588 145.33 214.878 145.33ZM214.9 141.697C215.678 141.697 216.327 141.477 216.848 141.037C217.369 140.589 217.762 139.98 218.026 139.21C218.298 138.439 218.433 137.562 218.433 136.578C218.433 135.595 218.298 134.718 218.026 133.947C217.762 133.177 217.369 132.568 216.848 132.12C216.327 131.672 215.678 131.449 214.9 131.449C214.114 131.449 213.454 131.672 212.918 132.12C212.39 132.568 211.99 133.177 211.718 133.947C211.454 134.718 211.322 135.595 211.322 136.578C211.322 137.562 211.454 138.439 211.718 139.21C211.99 139.98 212.39 140.589 212.918 141.037C213.454 141.477 214.114 141.697 214.9 141.697ZM241.469 128.091L235.557 145H230.273L224.361 128.091H229.315L232.827 140.189H233.003L236.504 128.091H241.469ZM243.869 145V128.091H248.558V145H243.869ZM246.224 125.911C245.527 125.911 244.929 125.68 244.43 125.218C243.938 124.748 243.692 124.187 243.692 123.533C243.692 122.888 243.938 122.333 244.43 121.871C244.929 121.401 245.527 121.167 246.224 121.167C246.922 121.167 247.516 121.401 248.008 121.871C248.507 122.333 248.756 122.888 248.756 123.533C248.756 124.187 248.507 124.748 248.008 125.218C247.516 125.68 246.922 125.911 246.224 125.911ZM260.021 145.33C258.281 145.33 256.784 144.978 255.529 144.273C254.282 143.562 253.32 142.556 252.645 141.257C251.97 139.951 251.632 138.406 251.632 136.623C251.632 134.883 251.97 133.357 252.645 132.043C253.32 130.729 254.271 129.705 255.496 128.972C256.729 128.238 258.175 127.871 259.834 127.871C260.949 127.871 261.988 128.051 262.949 128.41C263.918 128.762 264.762 129.295 265.481 130.006C266.208 130.718 266.773 131.614 267.176 132.692C267.58 133.764 267.782 135.019 267.782 136.457V137.745H253.504V134.839H263.367C263.367 134.164 263.221 133.566 262.927 133.045C262.633 132.524 262.226 132.116 261.705 131.823C261.191 131.522 260.593 131.371 259.911 131.371C259.199 131.371 258.568 131.537 258.017 131.867C257.474 132.19 257.048 132.626 256.74 133.177C256.432 133.72 256.274 134.325 256.267 134.993V137.756C256.267 138.593 256.421 139.316 256.729 139.925C257.045 140.534 257.489 141.004 258.061 141.334C258.634 141.664 259.313 141.83 260.098 141.83C260.619 141.83 261.096 141.756 261.529 141.609C261.962 141.463 262.333 141.242 262.641 140.949C262.949 140.655 263.184 140.296 263.345 139.87L267.683 140.156C267.463 141.198 267.011 142.108 266.329 142.886C265.653 143.657 264.78 144.259 263.709 144.692C262.644 145.117 261.415 145.33 260.021 145.33ZM293.055 129.742C292.9 129.206 292.684 128.733 292.405 128.322C292.126 127.904 291.785 127.551 291.381 127.265C290.985 126.972 290.53 126.748 290.016 126.594C289.51 126.44 288.948 126.363 288.332 126.363C287.18 126.363 286.167 126.649 285.294 127.221C284.428 127.794 283.752 128.627 283.268 129.72C282.784 130.806 282.541 132.135 282.541 133.705C282.541 135.276 282.78 136.612 283.257 137.712C283.734 138.813 284.409 139.654 285.283 140.233C286.156 140.806 287.187 141.092 288.376 141.092C289.455 141.092 290.376 140.901 291.139 140.52C291.91 140.131 292.497 139.584 292.9 138.879C293.311 138.175 293.517 137.342 293.517 136.38L294.486 136.523H288.673V132.935H298.108V135.775C298.108 137.756 297.689 139.459 296.853 140.883C296.016 142.299 294.864 143.393 293.396 144.163C291.928 144.927 290.247 145.308 288.354 145.308C286.24 145.308 284.384 144.842 282.784 143.91C281.184 142.971 279.936 141.639 279.041 139.914C278.153 138.182 277.709 136.127 277.709 133.749C277.709 131.922 277.973 130.293 278.501 128.862C279.037 127.423 279.786 126.205 280.747 125.207C281.708 124.209 282.828 123.449 284.105 122.928C285.382 122.407 286.765 122.146 288.255 122.146C289.532 122.146 290.721 122.333 291.822 122.708C292.922 123.075 293.899 123.596 294.75 124.271C295.609 124.946 296.309 125.75 296.853 126.682C297.396 127.607 297.744 128.627 297.898 129.742H293.055ZM306.422 145.319C305.343 145.319 304.381 145.132 303.537 144.758C302.693 144.376 302.026 143.815 301.534 143.074C301.05 142.325 300.807 141.393 300.807 140.277C300.807 139.338 300.98 138.549 301.325 137.911C301.67 137.272 302.139 136.758 302.734 136.369C303.328 135.98 304.003 135.687 304.759 135.489C305.523 135.29 306.323 135.151 307.159 135.07C308.143 134.968 308.935 134.872 309.537 134.784C310.139 134.689 310.576 134.549 310.847 134.366C311.119 134.182 311.254 133.911 311.254 133.551V133.485C311.254 132.788 311.034 132.248 310.594 131.867C310.161 131.485 309.544 131.294 308.744 131.294C307.901 131.294 307.229 131.482 306.73 131.856C306.231 132.223 305.901 132.685 305.739 133.243L301.402 132.891C301.622 131.863 302.055 130.975 302.701 130.227C303.347 129.471 304.18 128.891 305.2 128.487C306.227 128.076 307.416 127.871 308.767 127.871C309.706 127.871 310.605 127.981 311.464 128.201C312.33 128.421 313.097 128.762 313.764 129.225C314.44 129.687 314.972 130.282 315.361 131.008C315.75 131.727 315.944 132.59 315.944 133.595V145H311.497V142.655H311.365C311.093 143.184 310.73 143.65 310.275 144.053C309.82 144.45 309.273 144.761 308.634 144.989C307.996 145.209 307.258 145.319 306.422 145.319ZM307.765 142.083C308.455 142.083 309.064 141.947 309.592 141.675C310.121 141.397 310.535 141.022 310.836 140.553C311.137 140.083 311.287 139.551 311.287 138.956V137.162C311.141 137.257 310.939 137.345 310.682 137.426C310.432 137.5 310.15 137.569 309.834 137.635C309.519 137.694 309.203 137.749 308.888 137.8C308.572 137.844 308.286 137.885 308.029 137.922C307.479 138.002 306.998 138.131 306.587 138.307C306.176 138.483 305.857 138.721 305.629 139.022C305.402 139.316 305.288 139.683 305.288 140.123C305.288 140.762 305.519 141.25 305.981 141.587C306.451 141.918 307.046 142.083 307.765 142.083ZM324.272 122.455V145H319.582V122.455H324.272ZM332.85 145.319C331.772 145.319 330.81 145.132 329.966 144.758C329.122 144.376 328.454 143.815 327.963 143.074C327.478 142.325 327.236 141.393 327.236 140.277C327.236 139.338 327.409 138.549 327.753 137.911C328.098 137.272 328.568 136.758 329.163 136.369C329.757 135.98 330.432 135.687 331.188 135.489C331.951 135.29 332.751 135.151 333.588 135.07C334.571 134.968 335.364 134.872 335.966 134.784C336.568 134.689 337.004 134.549 337.276 134.366C337.547 134.182 337.683 133.911 337.683 133.551V133.485C337.683 132.788 337.463 132.248 337.023 131.867C336.59 131.485 335.973 131.294 335.173 131.294C334.329 131.294 333.658 131.482 333.159 131.856C332.66 132.223 332.329 132.685 332.168 133.243L327.831 132.891C328.051 131.863 328.484 130.975 329.13 130.227C329.775 129.471 330.608 128.891 331.628 128.487C332.656 128.076 333.845 127.871 335.195 127.871C336.135 127.871 337.034 127.981 337.892 128.201C338.758 128.421 339.525 128.762 340.193 129.225C340.868 129.687 341.4 130.282 341.789 131.008C342.178 131.727 342.373 132.59 342.373 133.595V145H337.925V142.655H337.793C337.522 143.184 337.158 143.65 336.703 144.053C336.248 144.45 335.702 144.761 335.063 144.989C334.425 145.209 333.687 145.319 332.85 145.319ZM334.193 142.083C334.883 142.083 335.492 141.947 336.021 141.675C336.549 141.397 336.964 141.022 337.265 140.553C337.566 140.083 337.716 139.551 337.716 138.956V137.162C337.569 137.257 337.368 137.345 337.111 137.426C336.861 137.5 336.579 137.569 336.263 137.635C335.947 137.694 335.632 137.749 335.316 137.8C335.001 137.844 334.715 137.885 334.458 137.922C333.907 138.002 333.427 138.131 333.016 138.307C332.605 138.483 332.285 138.721 332.058 139.022C331.83 139.316 331.717 139.683 331.717 140.123C331.717 140.762 331.948 141.25 332.41 141.587C332.88 141.918 333.474 142.083 334.193 142.083ZM349.93 128.091L353.035 134.002L356.216 128.091H361.027L356.128 136.545L361.159 145H356.37L353.035 139.154L349.754 145H344.91L349.93 136.545L345.086 128.091H349.93ZM366.707 151.341C366.113 151.341 365.555 151.293 365.034 151.198C364.52 151.11 364.094 150.996 363.757 150.857L364.814 147.356C365.364 147.525 365.859 147.616 366.3 147.631C366.747 147.646 367.133 147.543 367.456 147.323C367.786 147.103 368.054 146.728 368.259 146.2L368.535 145.484L362.469 128.091H367.401L370.901 140.509H371.078L374.611 128.091H379.576L373.004 146.827C372.688 147.737 372.259 148.53 371.716 149.205C371.18 149.888 370.501 150.413 369.679 150.779C368.857 151.154 367.867 151.341 366.707 151.341Z" fill="white"/>
<defs>
<linearGradient id="paint0_linear_157_9898" x1="17.1923" y1="28.5965" x2="128.482" y2="140.58" gradientUnits="userSpaceOnUse">
<stop stop-color="white"/>
<stop offset="1" stop-color="white"/>
</linearGradient>
</defs>
</svg>
