<svg width="21" height="20" viewBox="0 0 21 20" fill="none" xmlns="http://www.w3.org/2000/svg">
<g id="mail">
<path id="Vector" d="M17.1666 3.33301H3.83329C2.91663 3.33301 2.16663 4.08301 2.16663 4.99967V14.9997C2.16663 15.9163 2.91663 16.6663 3.83329 16.6663H17.1666C18.0833 16.6663 18.8333 15.9163 18.8333 14.9997V4.99967C18.8333 4.08301 18.0833 3.33301 17.1666 3.33301ZM16.8333 6.87467L11.3833 10.283C10.8416 10.6247 10.1583 10.6247 9.61663 10.283L4.16663 6.87467C4.08307 6.82777 4.00989 6.76439 3.95153 6.68839C3.89317 6.61238 3.85084 6.52532 3.82711 6.43248C3.80337 6.33964 3.79871 6.24295 3.81342 6.14826C3.82813 6.05357 3.86191 5.96285 3.91269 5.88159C3.96348 5.80033 4.03023 5.73022 4.1089 5.6755C4.18757 5.62079 4.27652 5.5826 4.37037 5.56326C4.46423 5.54391 4.56103 5.54381 4.65492 5.56296C4.74881 5.58212 4.83785 5.62012 4.91663 5.67467L10.5 9.16634L16.0833 5.67467C16.1621 5.62012 16.2511 5.58212 16.345 5.56296C16.4389 5.54381 16.5357 5.54391 16.6295 5.56326C16.7234 5.5826 16.8124 5.62079 16.891 5.6755C16.9697 5.73022 17.0364 5.80033 17.0872 5.88159C17.138 5.96285 17.1718 6.05357 17.1865 6.14826C17.2012 6.24295 17.1966 6.33964 17.1728 6.43248C17.1491 6.52532 17.1067 6.61238 17.0484 6.68839C16.99 6.76439 16.9169 6.82777 16.8333 6.87467Z" fill="white"/>
</g>
</svg>
