<svg width="16" height="19" viewBox="0 0 16 19" fill="none" xmlns="http://www.w3.org/2000/svg">
<path id="Vector" d="M14 6.64648H13V4.9322C13 2.56648 10.76 0.646484 8 0.646484C5.24 0.646484 3 2.56648 3 4.9322V6.64648H2C0.9 6.64648 0 7.41791 0 8.36077V16.9322C0 17.8751 0.9 18.6465 2 18.6465H14C15.1 18.6465 16 17.8751 16 16.9322V8.36077C16 7.41791 15.1 6.64648 14 6.64648ZM8 14.3608C6.9 14.3608 6 13.5893 6 12.6465C6 11.7036 6.9 10.9322 8 10.9322C9.1 10.9322 10 11.7036 10 12.6465C10 13.5893 9.1 14.3608 8 14.3608ZM5 6.64648V4.9322C5 3.50934 6.34 2.36077 8 2.36077C9.66 2.36077 11 3.50934 11 4.9322V6.64648H5Z" fill="#C7D3E4"/>
</svg>
