<svg width="19" height="18" viewBox="0 0 19 18" fill="none" xmlns="http://www.w3.org/2000/svg">
<path id="icon/action/zoom_in_24px" fill-rule="evenodd" clip-rule="evenodd" d="M12.8132 11.5747H13.6362L18.0632 16.0122C18.4903 16.4393 18.4903 17.1268 18.0632 17.5539L18.0528 17.5643C17.6257 17.9914 16.9382 17.9914 16.5112 17.5643L12.0737 13.1372V12.3143L11.7924 12.0226C10.3341 13.2726 8.3445 13.9185 6.22991 13.5643C3.33408 13.0747 1.02158 10.658 0.667414 7.74137C0.136164 3.33512 3.83408 -0.373209 8.24033 0.168458C11.157 0.522624 13.5737 2.83512 14.0632 5.73096C14.4174 7.84554 13.7716 9.83512 12.5216 11.2935L12.8132 11.5747ZM2.69867 6.88721C2.69867 9.48096 4.79242 11.5747 7.38617 11.5747C9.97992 11.5747 12.0737 9.48096 12.0737 6.88721C12.0737 4.29346 9.97992 2.19971 7.38617 2.19971C4.79242 2.19971 2.69867 4.29346 2.69867 6.88721Z" fill="white"/>
</svg>
