<svg width="20" height="20" viewBox="0 0 20 20" fill="none" xmlns="http://www.w3.org/2000/svg">
<g id="chat">
<path id="Vector" d="M16.6666 1.66699H3.33329C2.41663 1.66699 1.67496 2.41699 1.67496 3.33366L1.66663 18.3337L4.99996 15.0003H16.6666C17.5833 15.0003 18.3333 14.2503 18.3333 13.3337V3.33366C18.3333 2.41699 17.5833 1.66699 16.6666 1.66699ZM5.83329 7.50033H14.1666C14.625 7.50033 15 7.87533 15 8.33366C15 8.79199 14.625 9.16699 14.1666 9.16699H5.83329C5.37496 9.16699 4.99996 8.79199 4.99996 8.33366C4.99996 7.87533 5.37496 7.50033 5.83329 7.50033ZM10.8333 11.667H5.83329C5.37496 11.667 4.99996 11.292 4.99996 10.8337C4.99996 10.3753 5.37496 10.0003 5.83329 10.0003H10.8333C11.2916 10.0003 11.6666 10.3753 11.6666 10.8337C11.6666 11.292 11.2916 11.667 10.8333 11.667ZM14.1666 6.66699H5.83329C5.37496 6.66699 4.99996 6.29199 4.99996 5.83366C4.99996 5.37533 5.37496 5.00033 5.83329 5.00033H14.1666C14.625 5.00033 15 5.37533 15 5.83366C15 6.29199 14.625 6.66699 14.1666 6.66699Z" fill="white"/>
</g>
</svg>
