<svg width="20" height="20" viewBox="0 0 20 20" fill="none" xmlns="http://www.w3.org/2000/svg">
<g id="language">
<path id="Vector" d="M9.99163 1.66699C5.39163 1.66699 1.66663 5.40033 1.66663 10.0003C1.66663 14.6003 5.39163 18.3337 9.99163 18.3337C14.6 18.3337 18.3333 14.6003 18.3333 10.0003C18.3333 5.40033 14.6 1.66699 9.99163 1.66699ZM15.7666 6.66699H13.3083C13.0475 5.63487 12.6613 4.63857 12.1583 3.70033C13.6784 4.22366 14.9593 5.27676 15.7666 6.66699ZM9.99996 3.36699C10.6916 4.36699 11.2333 5.47533 11.5916 6.66699H8.40829C8.76663 5.47533 9.30829 4.36699 9.99996 3.36699ZM3.54996 11.667C3.41663 11.1337 3.33329 10.5753 3.33329 10.0003C3.33329 9.42533 3.41663 8.86699 3.54996 8.33366H6.36663C6.29996 8.88366 6.24996 9.43366 6.24996 10.0003C6.24996 10.567 6.29996 11.117 6.36663 11.667H3.54996ZM4.23329 13.3337H6.69163C6.95829 14.3753 7.34163 15.3753 7.84163 16.3003C6.31993 15.7799 5.03815 14.726 4.23329 13.3337ZM6.69163 6.66699H4.23329C5.03815 5.27464 6.31993 4.2208 7.84163 3.70033C7.33865 4.63857 6.95244 5.63487 6.69163 6.66699ZM9.99996 16.6337C9.30829 15.6337 8.76663 14.5253 8.40829 13.3337H11.5916C11.2333 14.5253 10.6916 15.6337 9.99996 16.6337ZM11.95 11.667H8.04996C7.97496 11.117 7.91663 10.567 7.91663 10.0003C7.91663 9.43366 7.97496 8.87533 8.04996 8.33366H11.95C12.025 8.87533 12.0833 9.43366 12.0833 10.0003C12.0833 10.567 12.025 11.117 11.95 11.667ZM12.1583 16.3003C12.6583 15.3753 13.0416 14.3753 13.3083 13.3337H15.7666C14.9593 14.7239 13.6784 15.777 12.1583 16.3003ZM13.6333 11.667C13.7 11.117 13.75 10.567 13.75 10.0003C13.75 9.43366 13.7 8.88366 13.6333 8.33366H16.45C16.5833 8.86699 16.6666 9.42533 16.6666 10.0003C16.6666 10.5753 16.5833 11.1337 16.45 11.667H13.6333Z" fill="white"/>
</g>
</svg>
